ffmpeg version git-2026-04-19-de18feb Copyright (c) 2000-2026 the FFmpeg developers
  built with gcc 9 (Ubuntu 9.4.0-1ubuntu1~20.04.2)
  configuration: --enable-shared --enable-gpl --enable-libx264
  libavutil      60. 30.100 / 60. 30.100
  libavcodec     62. 30.100 / 62. 30.100
  libavformat    62. 13.102 / 62. 13.102
  libavdevice    62.  4.100 / 62.  4.100
  libavfilter    11. 15.101 / 11. 15.101
  libswscale      9.  7.100 /  9.  7.100
  libswresample   6.  4.100 /  6.  4.100
[in#0/x11grab @ 0x562b9b1c6c40] Stream #0: not enough frames to estimate rate; consider increasing probesize
Input #0, x11grab, from ':0.0+0,0':
  Duration: N/A, start: 1777438292.646795, bitrate: 3678192 kb/s
  Stream #0:0: Video: rawvideo (BGR[0] / 0x524742), bgr0, 2870x1602, 3678192 kb/s, 25 fps, 1000k tbr, 1000k tbn, start 1777438292.646795
Stream mapping:
  Stream #0:0 -> #0:0 (rawvideo (native) -> h264 (libx264))
[libx264 @ 0x562b9b1d4f00] using cpu capabilities: MMX2 SSE2Fast SSSE3 SSE4.2 AVX FMA3 BMI2 AVX2
[libx264 @ 0x562b9b1d4f00] profile High, level 5.0
[libx264 @ 0x562b9b1d4f00] 264 - core 155 r2917 0a84d98 - H.264/MPEG-4 AVC codec - Copyleft 2003-2018 - http://www.videolan.org/x264.html - options: cabac=1 ref=1 deblock=1:0:0 analyse=0x3:0x113 me=hex subme=2 psy=1 psy_rd=1.00:0.00 mixed_ref=0 me_range=16 chroma_me=1 trellis=0 8x8dct=1 cqm=0 deadzone=21,11 fast_pskip=1 chroma_qp_offset=0 threads=6 lookahead_threads=2 sliced_threads=0 nr=0 decimate=1 interlaced=0 bluray_compat=0 constrained_intra=0 bframes=3 b_pyramid=2 b_adapt=1 b_bias=0 direct=1 weightb=1 open_gop=0 weightp=1 keyint=250 keyint_min=25 scenecut=40 intra_refresh=0 rc_lookahead=10 rc=crf mbtree=1 crf=23.0 qcomp=0.60 qpmin=0 qpmax=69 qpstep=4 ip_ratio=1.40 aq=1:1.00
Output #0, matroska, to '/home/lmy/catkin_ws/recordings_tmp/exp_10_segment_v6/screen.mkv':
  Metadata:
    encoder         : Lavf62.13.102
  Stream #0:0: Video: h264 (H264 / 0x34363248), yuv420p(tv, progressive), 2870x1602, q=2-31, 25 fps, 1k tbn
    Metadata:
      encoder         : Lavc62.30.100 libx264
    Side data:
      CPB properties: bitrate max/min/avg: 0/0/0 buffer size: 0 vbv_delay: N/A
frame=    0 fps=0.0 q=0.0 size=       0KiB time=N/A bitrate=N/A speed=N/A elapsed=0:00:00.50    frame=    6 fps=6.0 q=28.0 size=       1KiB time=00:00:00.16 bitrate=  29.7kbits/s speed=0.16x elapsed=0:00:01.00    frame=   18 fps= 12 q=28.0 size=       1KiB time=00:00:00.64 bitrate=   7.4kbits/s speed=0.426x elapsed=0:00:01.50    frame=   30 fps= 15 q=28.0 size=       1KiB time=00:00:01.16 bitrate=   4.1kbits/s speed=0.579x elapsed=0:00:02.00    frame=   43 fps= 17 q=28.0 size=       1KiB time=00:00:01.64 bitrate=   2.9kbits/s speed=0.654x elapsed=0:00:02.50    frame=   56 fps= 19 q=28.0 size=       1KiB time=00:00:02.16 bitrate=   2.2kbits/s speed=0.718x elapsed=0:00:03.00    frame=   68 fps= 19 q=28.0 size=       1KiB time=00:00:02.64 bitrate=   1.8kbits/s speed=0.753x elapsed=0:00:03.50    frame=   81 fps= 20 q=28.0 size=       1KiB time=00:00:03.16 bitrate=   1.5kbits/s speed=0.788x elapsed=0:00:04.01    frame=   93 fps= 21 q=28.0 size=       1KiB time=00:00:03.64 bitrate=   1.3kbits/s speed=0.807x elapsed=0:00:04.51    frame=  106 fps= 21 q=28.0 size=       1KiB time=00:00:04.16 bitrate=   1.1kbits/s speed=0.83x elapsed=0:00:05.01    frame=  119 fps= 22 q=28.0 size=       1KiB time=00:00:04.68 bitrate=   1.0kbits/s speed=0.849x elapsed=0:00:05.51    frame=  131 fps= 22 q=28.0 size=     168KiB time=00:00:05.16 bitrate= 267.1kbits/s speed=0.858x elapsed=0:00:06.01    frame=  144 fps= 22 q=28.0 size=     168KiB time=00:00:05.68 bitrate= 242.7kbits/s speed=0.872x elapsed=0:00:06.51    frame=  156 fps= 22 q=28.0 size=     168KiB time=00:00:06.16 bitrate= 223.8kbits/s speed=0.879x elapsed=0:00:07.01    frame=  169 fps= 22 q=28.0 size=     168KiB time=00:00:06.68 bitrate= 206.3kbits/s speed=0.889x elapsed=0:00:07.51    frame=  181 fps= 23 q=28.0 size=     168KiB time=00:00:07.16 bitrate= 192.5kbits/s speed=0.894x elapsed=0:00:08.01    frame=  194 fps= 23 q=28.0 size=     168KiB time=00:00:07.68 bitrate= 179.5kbits/s speed=0.902x elapsed=0:00:08.51    frame=  206 fps= 23 q=28.0 size=     168KiB time=00:00:08.16 bitrate= 168.9kbits/s speed=0.905x elapsed=0:00:09.01    frame=  218 fps= 23 q=28.0 size=     168KiB time=00:00:08.64 bitrate= 159.5kbits/s speed=0.908x elapsed=0:00:09.51    frame=  231 fps= 23 q=28.0 size=     168KiB time=00:00:09.16 bitrate= 150.5kbits/s speed=0.915x elapsed=0:00:10.01    frame=  244 fps= 23 q=28.0 size=     168KiB time=00:00:09.68 bitrate= 142.4kbits/s speed=0.921x elapsed=0:00:10.51    frame=  256 fps= 23 q=28.0 size=     256KiB time=00:00:10.16 bitrate= 206.4kbits/s speed=0.922x elapsed=0:00:11.01    frame=  269 fps= 23 q=28.0 size=     256KiB time=00:00:10.68 bitrate= 196.4kbits/s speed=0.927x elapsed=0:00:11.51    frame=  281 fps= 23 q=28.0 size=     256KiB time=00:00:11.16 bitrate= 187.9kbits/s speed=0.929x elapsed=0:00:12.01    frame=  294 fps= 23 q=28.0 size=     256KiB time=00:00:11.68 bitrate= 179.6kbits/s speed=0.933x elapsed=0:00:12.51    frame=  306 fps= 24 q=28.0 size=     256KiB time=00:00:12.16 bitrate= 172.5kbits/s speed=0.934x elapsed=0:00:13.01    frame=  318 fps= 24 q=28.0 size=     256KiB time=00:00:12.68 bitrate= 165.4kbits/s speed=0.938x elapsed=0:00:13.51    frame=  331 fps= 24 q=28.0 size=     256KiB time=00:00:13.16 bitrate= 159.4kbits/s speed=0.939x elapsed=0:00:14.01    frame=  344 fps= 24 q=28.0 size=     256KiB time=00:00:13.68 bitrate= 153.3kbits/s speed=0.942x elapsed=0:00:14.52    frame=  356 fps= 24 q=28.0 size=     256KiB time=00:00:14.16 bitrate= 148.1kbits/s speed=0.942x elapsed=0:00:15.02    frame=  369 fps= 24 q=28.0 size=     256KiB time=00:00:14.68 bitrate= 142.9kbits/s speed=0.946x elapsed=0:00:15.52    frame=  381 fps= 24 q=28.0 size=     256KiB time=00:00:15.16 bitrate= 138.3kbits/s speed=0.946x elapsed=0:00:16.02    frame=  394 fps= 24 q=28.0 size=     256KiB time=00:00:15.68 bitrate= 133.7kbits/s speed=0.949x elapsed=0:00:16.52    frame=  406 fps= 24 q=28.0 size=     256KiB time=00:00:16.16 bitrate= 129.8kbits/s speed=0.949x elapsed=0:00:17.02    frame=  419 fps= 24 q=28.0 size=     256KiB time=00:00:16.68 bitrate= 125.7kbits/s speed=0.952x elapsed=0:00:17.52    frame=  431 fps= 24 q=28.0 size=     256KiB time=00:00:17.16 bitrate= 122.2kbits/s speed=0.952x elapsed=0:00:18.02    frame=  444 fps= 24 q=28.0 size=     256KiB time=00:00:17.68 bitrate= 118.6kbits/s speed=0.954x elapsed=0:00:18.52    frame=  456 fps= 24 q=28.0 size=     256KiB time=00:00:18.16 bitrate= 115.5kbits/s speed=0.954x elapsed=0:00:19.02    frame=  469 fps= 24 q=28.0 size=     256KiB time=00:00:18.68 bitrate= 112.3kbits/s speed=0.956x elapsed=0:00:19.52    frame=  482 fps= 24 q=28.0 size=     256KiB time=00:00:19.20 bitrate= 109.2kbits/s speed=0.959x elapsed=0:00:20.03    frame=  494 fps= 24 q=28.0 size=     256KiB time=00:00:19.68 bitrate= 106.6kbits/s speed=0.958x elapsed=0:00:20.53    frame=  507 fps= 24 q=28.0 size=     512KiB time=00:00:20.20 bitrate= 207.6kbits/s speed=0.96x elapsed=0:00:21.03    frame=  519 fps= 24 q=28.0 size=     512KiB time=00:00:20.68 bitrate= 202.8kbits/s speed=0.96x elapsed=0:00:21.53    frame=  532 fps= 24 q=28.0 size=     512KiB time=00:00:21.20 bitrate= 197.8kbits/s speed=0.962x elapsed=0:00:22.03    frame=  544 fps= 24 q=28.0 size=     512KiB time=00:00:21.68 bitrate= 193.5kbits/s speed=0.962x elapsed=0:00:22.53    frame=  557 fps= 24 q=28.0 size=     512KiB time=00:00:22.20 bitrate= 188.9kbits/s speed=0.964x elapsed=0:00:23.03    frame=  569 fps= 24 q=28.0 size=     512KiB time=00:00:22.68 bitrate= 184.9kbits/s speed=0.964x elapsed=0:00:23.53    frame=  582 fps= 24 q=28.0 size=     512KiB time=00:00:23.20 bitrate= 180.8kbits/s speed=0.965x elapsed=0:00:24.03    frame=  594 fps= 24 q=28.0 size=     512KiB time=00:00:23.68 bitrate= 177.1kbits/s speed=0.965x elapsed=0:00:24.53    frame=  607 fps= 24 q=28.0 size=     512KiB time=00:00:24.20 bitrate= 173.3kbits/s speed=0.967x elapsed=0:00:25.03    frame=  619 fps= 24 q=28.0 size=     512KiB time=00:00:24.68 bitrate= 169.9kbits/s speed=0.966x elapsed=0:00:25.53    frame=  632 fps= 24 q=28.0 size=     768KiB time=00:00:25.20 bitrate= 249.7kbits/s speed=0.968x elapsed=0:00:26.03    frame=  644 fps= 24 q=28.0 size=     768KiB time=00:00:25.68 bitrate= 245.0kbits/s speed=0.968x elapsed=0:00:26.53    frame=  657 fps= 24 q=28.0 size=     768KiB time=00:00:26.20 bitrate= 240.1kbits/s speed=0.969x elapsed=0:00:27.03    frame=  669 fps= 24 q=28.0 size=     768KiB time=00:00:26.68 bitrate= 235.8kbits/s speed=0.969x elapsed=0:00:27.53    frame=  682 fps= 24 q=28.0 size=     768KiB time=00:00:27.20 bitrate= 231.3kbits/s speed=0.97x elapsed=0:00:28.04    frame=  694 fps= 24 q=28.0 size=     768KiB time=00:00:27.68 bitrate= 227.3kbits/s speed=0.97x elapsed=0:00:28.54    frame=  707 fps= 24 q=28.0 size=     768KiB time=00:00:28.20 bitrate= 223.1kbits/s speed=0.971x elapsed=0:00:29.04    frame=  719 fps= 24 q=28.0 size=     768KiB time=00:00:28.68 bitrate= 219.4kbits/s speed=0.971x elapsed=0:00:29.54    frame=  732 fps= 24 q=28.0 size=     768KiB time=00:00:29.20 bitrate= 215.5kbits/s speed=0.972x elapsed=0:00:30.04    frame=  744 fps= 24 q=28.0 size=     768KiB time=00:00:29.68 bitrate= 212.0kbits/s speed=0.972x elapsed=0:00:30.54    frame=  757 fps= 24 q=28.0 size=     768KiB time=00:00:30.20 bitrate= 208.3kbits/s speed=0.973x elapsed=0:00:31.04    frame=  769 fps= 24 q=28.0 size=     768KiB time=00:00:30.68 bitrate= 205.1kbits/s speed=0.973x elapsed=0:00:31.54    frame=  782 fps= 24 q=28.0 size=     768KiB time=00:00:31.20 bitrate= 201.6kbits/s speed=0.974x elapsed=0:00:32.04    frame=  794 fps= 24 q=28.0 size=     768KiB time=00:00:31.68 bitrate= 198.6kbits/s speed=0.973x elapsed=0:00:32.54    frame=  807 fps= 24 q=28.0 size=     768KiB time=00:00:32.20 bitrate= 195.4kbits/s speed=0.974x elapsed=0:00:33.04    frame=  819 fps= 24 q=28.0 size=     768KiB time=00:00:32.68 bitrate= 192.5kbits/s speed=0.974x elapsed=0:00:33.54    frame=  832 fps= 24 q=28.0 size=     768KiB time=00:00:33.20 bitrate= 189.5kbits/s speed=0.975x elapsed=0:00:34.04    frame=  845 fps= 24 q=28.0 size=     768KiB time=00:00:33.72 bitrate= 186.6kbits/s speed=0.976x elapsed=0:00:34.54    frame=  857 fps= 24 q=28.0 size=     768KiB time=00:00:34.20 bitrate= 184.0kbits/s speed=0.976x elapsed=0:00:35.04    frame=  869 fps= 24 q=28.0 size=     768KiB time=00:00:34.68 bitrate= 181.4kbits/s speed=0.976x elapsed=0:00:35.54    frame=  882 fps= 24 q=28.0 size=    1024KiB time=00:00:35.20 bitrate= 238.3kbits/s speed=0.977x elapsed=0:00:36.04    frame=  895 fps= 24 q=28.0 size=    1024KiB time=00:00:35.72 bitrate= 234.8kbits/s speed=0.977x elapsed=0:00:36.54    frame=  907 fps= 24 q=28.0 size=    1024KiB time=00:00:36.20 bitrate= 231.7kbits/s speed=0.977x elapsed=0:00:37.04    frame=  920 fps= 25 q=28.0 size=    1024KiB time=00:00:36.72 bitrate= 228.4kbits/s speed=0.978x elapsed=0:00:37.54    frame=  932 fps= 24 q=28.0 size=    1024KiB time=00:00:37.20 bitrate= 225.5kbits/s speed=0.978x elapsed=0:00:38.04    frame=  944 fps= 24 q=28.0 size=    1024KiB time=00:00:37.68 bitrate= 222.6kbits/s speed=0.977x elapsed=0:00:38.54    frame=  957 fps= 25 q=28.0 size=    1024KiB time=00:00:38.20 bitrate= 219.6kbits/s speed=0.978x elapsed=0:00:39.04    frame=  969 fps= 25 q=28.0 size=    1024KiB time=00:00:38.68 bitrate= 216.9kbits/s speed=0.978x elapsed=0:00:39.54    frame=  982 fps= 25 q=28.0 size=    1024KiB time=00:00:39.20 bitrate= 214.0kbits/s speed=0.979x elapsed=0:00:40.04    frame=  994 fps= 25 q=28.0 size=    1024KiB time=00:00:39.72 bitrate= 211.2kbits/s speed=0.98x elapsed=0:00:40.55    frame= 1007 fps= 25 q=28.0 size=    1024KiB time=00:00:40.20 bitrate= 208.7kbits/s speed=0.979x elapsed=0:00:41.05    frame= 1020 fps= 25 q=28.0 size=    1024KiB time=00:00:40.72 bitrate= 206.0kbits/s speed=0.98x elapsed=0:00:41.55    frame= 1032 fps= 25 q=28.0 size=    1024KiB time=00:00:41.20 bitrate= 203.6kbits/s speed=0.98x elapsed=0:00:42.05    frame= 1044 fps= 25 q=28.0 size=    1024KiB time=00:00:41.68 bitrate= 201.3kbits/s speed=0.98x elapsed=0:00:42.55    frame= 1057 fps= 25 q=28.0 size=    1024KiB time=00:00:42.20 bitrate= 198.8kbits/s speed=0.98x elapsed=0:00:43.05    frame= 1070 fps= 25 q=28.0 size=    1024KiB time=00:00:42.72 bitrate= 196.4kbits/s speed=0.981x elapsed=0:00:43.55    frame= 1082 fps= 25 q=28.0 size=    1024KiB time=00:00:43.20 bitrate= 194.2kbits/s speed=0.981x elapsed=0:00:44.05    frame= 1095 fps= 25 q=28.0 size=    1024KiB time=00:00:43.72 bitrate= 191.9kbits/s speed=0.981x elapsed=0:00:44.55    frame= 1107 fps= 25 q=28.0 size=    1024KiB time=00:00:44.20 bitrate= 189.8kbits/s speed=0.981x elapsed=0:00:45.05    frame= 1119 fps= 25 q=28.0 size=    1024KiB time=00:00:44.72 bitrate= 187.6kbits/s speed=0.982x elapsed=0:00:45.55    frame= 1132 fps= 25 q=28.0 size=    1280KiB time=00:00:45.20 bitrate= 232.0kbits/s speed=0.981x elapsed=0:00:46.05    frame= 1145 fps= 25 q=28.0 size=    1280KiB time=00:00:45.72 bitrate= 229.3kbits/s speed=0.982x elapsed=0:00:46.55    frame= 1157 fps= 25 q=28.0 size=    1280KiB time=00:00:46.20 bitrate= 227.0kbits/s speed=0.982x elapsed=0:00:47.05    frame= 1169 fps= 25 q=28.0 size=    1280KiB time=00:00:46.68 bitrate= 224.6kbits/s speed=0.982x elapsed=0:00:47.55    frame= 1182 fps= 25 q=28.0 size=    1280KiB time=00:00:47.20 bitrate= 222.2kbits/s speed=0.982x elapsed=0:00:48.05    frame= 1195 fps= 25 q=28.0 size=    1280KiB time=00:00:47.72 bitrate= 219.7kbits/s speed=0.983x elapsed=0:00:48.55    frame= 1207 fps= 25 q=28.0 size=    1280KiB time=00:00:48.20 bitrate= 217.5kbits/s speed=0.983x elapsed=0:00:49.05    frame= 1220 fps= 25 q=28.0 size=    1280KiB time=00:00:48.72 bitrate= 215.2kbits/s speed=0.983x elapsed=0:00:49.55    frame= 1232 fps= 25 q=28.0 size=    1280KiB time=00:00:49.20 bitrate= 213.1kbits/s speed=0.983x elapsed=0:00:50.05    frame= 1245 fps= 25 q=28.0 size=    1280KiB time=00:00:49.72 bitrate= 210.9kbits/s speed=0.983x elapsed=0:00:50.55    frame= 1257 fps= 25 q=28.0 size=    1280KiB time=00:00:50.20 bitrate= 208.9kbits/s speed=0.983x elapsed=0:00:51.05    frame= 1270 fps= 25 q=28.0 size=    1280KiB time=00:00:50.72 bitrate= 206.7kbits/s speed=0.984x elapsed=0:00:51.55    frame= 1282 fps= 25 q=28.0 size=    1280KiB time=00:00:51.20 bitrate= 204.8kbits/s speed=0.983x elapsed=0:00:52.05    frame= 1295 fps= 25 q=28.0 size=    1280KiB time=00:00:51.72 bitrate= 202.7kbits/s speed=0.984x elapsed=0:00:52.55    frame= 1307 fps= 25 q=28.0 size=    1280KiB time=00:00:52.20 bitrate= 200.9kbits/s speed=0.984x elapsed=0:00:53.06    frame= 1320 fps= 25 q=28.0 size=    1280KiB time=00:00:52.72 bitrate= 198.9kbits/s speed=0.984x elapsed=0:00:53.56    frame= 1332 fps= 25 q=28.0 size=    1280KiB time=00:00:53.20 bitrate= 197.1kbits/s speed=0.984x elapsed=0:00:54.06    frame= 1345 fps= 25 q=28.0 size=    1280KiB time=00:00:53.72 bitrate= 195.2kbits/s speed=0.985x elapsed=0:00:54.56    frame= 1357 fps= 25 q=28.0 size=    1280KiB time=00:00:54.20 bitrate= 193.5kbits/s speed=0.984x elapsed=0:00:55.06    frame= 1370 fps= 25 q=28.0 size=    1280KiB time=00:00:54.72 bitrate= 191.6kbits/s speed=0.985x elapsed=0:00:55.56    frame= 1382 fps= 25 q=28.0 size=    1536KiB time=00:00:55.20 bitrate= 228.0kbits/s speed=0.985x elapsed=0:00:56.06    frame= 1395 fps= 25 q=28.0 size=    1536KiB time=00:00:55.72 bitrate= 225.8kbits/s speed=0.985x elapsed=0:00:56.56    frame= 1407 fps= 25 q=28.0 size=    1536KiB time=00:00:56.20 bitrate= 223.9kbits/s speed=0.985x elapsed=0:00:57.06    frame= 1420 fps= 25 q=28.0 size=    1536KiB time=00:00:56.72 bitrate= 221.8kbits/s speed=0.985x elapsed=0:00:57.56    frame= 1432 fps= 25 q=28.0 size=    1536KiB time=00:00:57.20 bitrate= 220.0kbits/s speed=0.985x elapsed=0:00:58.06    frame= 1445 fps= 25 q=28.0 size=    1536KiB time=00:00:57.72 bitrate= 218.0kbits/s speed=0.986x elapsed=0:00:58.56    frame= 1458 fps= 25 q=28.0 size=    1536KiB time=00:00:58.24 bitrate= 216.1kbits/s speed=0.986x elapsed=0:00:59.06    frame= 1470 fps= 25 q=28.0 size=    1536KiB time=00:00:58.72 bitrate= 214.3kbits/s speed=0.986x elapsed=0:00:59.56    frame= 1482 fps= 25 q=28.0 size=    1536KiB time=00:00:59.20 bitrate= 212.5kbits/s speed=0.986x elapsed=0:01:00.06    frame= 1495 fps= 25 q=28.0 size=    1536KiB time=00:00:59.72 bitrate= 210.7kbits/s speed=0.986x elapsed=0:01:00.56    frame= 1507 fps= 25 q=28.0 size=    1792KiB time=00:01:00.20 bitrate= 243.9kbits/s speed=0.986x elapsed=0:01:01.06    frame= 1520 fps= 25 q=28.0 size=    1792KiB time=00:01:00.72 bitrate= 241.8kbits/s speed=0.986x elapsed=0:01:01.56    frame= 1532 fps= 25 q=28.0 size=    1792KiB time=00:01:01.20 bitrate= 239.9kbits/s speed=0.986x elapsed=0:01:02.06    frame= 1545 fps= 25 q=28.0 size=    1792KiB time=00:01:01.72 bitrate= 237.8kbits/s speed=0.986x elapsed=0:01:02.56    frame= 1557 fps= 25 q=28.0 size=    1792KiB time=00:01:02.24 bitrate= 235.9kbits/s speed=0.987x elapsed=0:01:03.06    frame= 1570 fps= 25 q=28.0 size=    1792KiB time=00:01:02.72 bitrate= 234.1kbits/s speed=0.987x elapsed=0:01:03.56    [out#0/matroska @ 0x562b9b1d3500] Error writing trailer: Immediate exit requested
[out#0/matroska @ 0x562b9b1d3500] Error closing file: Immediate exit requested
[out#0/matroska @ 0x562b9b1d3500] video:2570KiB audio:0KiB subtitle:0KiB other streams:0KiB global headers:0KiB muxing overhead: unknown
frame= 1603 fps= 25 q=-1.0 Lsize=    1792KiB time=00:01:04.04 bitrate= 229.2kbits/s speed=0.998x elapsed=0:01:04.19    
[libx264 @ 0x562b9b1d4f00] frame I:7     Avg QP:11.86  size:116811
[libx264 @ 0x562b9b1d4f00] frame P:408   Avg QP:17.32  size:  2911
[libx264 @ 0x562b9b1d4f00] frame B:1188  Avg QP:24.10  size:   526
[libx264 @ 0x562b9b1d4f00] consecutive B-frames:  1.0%  0.5%  0.2% 98.3%
[libx264 @ 0x562b9b1d4f00] mb I  I16..4: 88.9%  1.8%  9.3%
[libx264 @ 0x562b9b1d4f00] mb P  I16..4:  0.3%  0.1%  0.1%  P16..4:  0.3%  0.2%  0.1%  0.0%  0.0%    skip:98.9%
[libx264 @ 0x562b9b1d4f00] mb B  I16..4:  0.0%  0.0%  0.0%  B16..8:  0.3%  0.1%  0.0%  direct: 0.0%  skip:99.6%  L0:44.7% L1:48.3% BI: 6.9%
[libx264 @ 0x562b9b1d4f00] 8x8 transform intra:4.3% inter:3.1%
[libx264 @ 0x562b9b1d4f00] coded y,uvDC,uvAC intra: 16.5% 22.9% 19.0% inter: 0.1% 0.1% 0.0%
[libx264 @ 0x562b9b1d4f00] i16 v,h,dc,p: 68% 30%  2%  0%
[libx264 @ 0x562b9b1d4f00] i8 v,h,dc,ddl,ddr,vr,hd,vl,hu: 15% 20% 60%  1%  1%  2%  0%  0%  1%
[libx264 @ 0x562b9b1d4f00] i4 v,h,dc,ddl,ddr,vr,hd,vl,hu: 34% 26% 20%  3%  3%  5%  3%  4%  3%
[libx264 @ 0x562b9b1d4f00] i8c dc,h,v,p: 60% 30% 10%  0%
[libx264 @ 0x562b9b1d4f00] Weighted P-Frames: Y:0.0% UV:0.0%
[libx264 @ 0x562b9b1d4f00] kb/s:328.22
Exiting normally, received signal 2.
